<svg id="Layer_1" data-name="Layer 1" xmlns="http://www.w3.org/2000/svg" xmlns:xlink="http://www.w3.org/1999/xlink" viewBox="0 0 77.37 54.05"><defs><style>.cls-1{fill:url(#linear-gradient);}.cls-2{fill:url(#linear-gradient-2);}.cls-3{fill:url(#linear-gradient-3);}.cls-4{fill:url(#linear-gradient-4);}.cls-5{fill:url(#linear-gradient-5);}.cls-6{fill:url(#linear-gradient-6);}.cls-7{fill:url(#linear-gradient-7);}.cls-8{fill:url(#linear-gradient-8);}.cls-9{fill:url(#linear-gradient-9);}.cls-10{fill:url(#linear-gradient-10);}.cls-11{fill:#00aed3;}</style><linearGradient id="linear-gradient" x1="15.26" y1="21.16" x2="45.57" y2="1.04" gradientTransform="translate(37.63 -1.68) rotate(90)" gradientUnits="userSpaceOnUse"><stop offset="0" stop-color="#1cc3ee"/><stop offset="1" stop-color="#92278f"/></linearGradient><linearGradient id="linear-gradient-2" x1="16.63" y1="23.22" x2="46.94" y2="3.11" gradientTransform="translate(42.11 -6.13) rotate(90)" xlink:href="#linear-gradient"/><linearGradient id="linear-gradient-3" x1="18" y1="25.29" x2="48.31" y2="5.17" gradientTransform="translate(46.6 -10.58) rotate(90)" xlink:href="#linear-gradient"/><linearGradient id="linear-gradient-4" x1="19.37" y1="27.36" x2="49.68" y2="7.24" gradientTransform="translate(51.08 -15.04) rotate(90)" xlink:href="#linear-gradient"/><linearGradient id="linear-gradient-5" x1="20.74" y1="29.42" x2="51.05" y2="9.31" gradientTransform="translate(55.56 -19.49) rotate(90)" xlink:href="#linear-gradient"/><linearGradient id="linear-gradient-6" x1="22.11" y1="31.49" x2="52.42" y2="11.37" gradientTransform="translate(60.05 -23.94) rotate(90)" xlink:href="#linear-gradient"/><linearGradient id="linear-gradient-7" x1="23.49" y1="33.55" x2="53.79" y2="13.44" gradientTransform="translate(64.53 -28.4) rotate(90)" xlink:href="#linear-gradient"/><linearGradient id="linear-gradient-8" x1="24.86" y1="35.62" x2="55.16" y2="15.5" gradientTransform="translate(69.01 -32.85) rotate(90)" xlink:href="#linear-gradient"/><linearGradient id="linear-gradient-9" x1="26.23" y1="37.68" x2="56.53" y2="17.57" gradientTransform="translate(73.5 -37.3) rotate(90)" xlink:href="#linear-gradient"/><linearGradient id="linear-gradient-10" x1="27.6" y1="39.75" x2="57.91" y2="19.64" gradientTransform="translate(77.98 -41.75) rotate(90)" xlink:href="#linear-gradient"/></defs><title>Artboard 3</title><rect class="cls-1" x="15.75" y="15.96" width="5.96" height="2.06" rx="1" transform="translate(1.62 35.6) rotate(-89.61)"/><rect class="cls-2" x="13.93" y="15.99" width="18.58" height="2.06" rx="1" transform="translate(6.04 40.11) rotate(-89.61)"/><rect class="cls-3" x="10.65" y="16.02" width="34.1" height="2.06" rx="1" transform="translate(10.46 44.63) rotate(-89.61)"/><rect class="cls-4" x="22.89" y="16.05" width="18.58" height="2.06" rx="1" transform="translate(14.88 49.14) rotate(-89.61)"/><rect class="cls-5" x="31.85" y="16.08" width="9.63" height="2.06" rx="1" transform="translate(19.31 53.65) rotate(-89.61)"/><rect class="cls-6" x="31.86" y="16.11" width="18.58" height="2.06" rx="1" transform="translate(23.73 58.17) rotate(-89.61)"/><rect class="cls-7" x="40.82" y="16.14" width="9.63" height="2.06" rx="1" transform="translate(28.15 62.68) rotate(-89.61)"/><rect class="cls-8" x="40.83" y="16.17" width="18.58" height="2.06" rx="1" transform="translate(32.57 67.2) rotate(-89.61)"/><rect class="cls-9" x="49.78" y="16.2" width="9.63" height="2.06" rx="1" transform="translate(37 71.71) rotate(-89.61)"/><rect class="cls-10" x="56.1" y="16.23" width="5.96" height="2.06" rx="1" transform="translate(41.42 76.22) rotate(-89.61)"/><path class="cls-11" d="M0,49.66l.85-1.14A3.33,3.33,0,0,0,3,49.39c.84,0,1.24-.39,1.24-.91s-.82-.94-1.64-1.26c-1-.38-2.15-1-2.15-2.26s1.1-2.29,2.82-2.28a4.16,4.16,0,0,1,2.55.94l-.84,1.11A2.88,2.88,0,0,0,3.26,44c-.77,0-1.14.37-1.14.85s.77.84,1.6,1.15c1,.4,2.2.91,2.19,2.34s-1.06,2.38-3,2.37A4.86,4.86,0,0,1,0,49.66Z"/><path class="cls-11" d="M7,46.75a3.67,3.67,0,1,1,7.31,0,3.67,3.67,0,1,1-7.31,0Zm5.46,0c0-1.54-.66-2.58-1.79-2.58s-1.81,1-1.82,2.55.66,2.56,1.79,2.57S12.48,48.33,12.49,46.79Z"/><path class="cls-11" d="M16,47.78l0-4.82h1.8l0,4.59c0,1.27.35,1.75,1.18,1.75s1.13-.3,1.72-1.05l0-5.27h1.81l-.06,7.7H21l-.13-1.14h-.05a3.14,3.14,0,0,1-2.48,1.31C16.73,50.84,16,49.72,16,47.78Z"/><path class="cls-11" d="M24.86,43h1.48l.13,1h.05a3.59,3.59,0,0,1,2.53-1.21c1.65,0,2.36,1.13,2.35,3.07l0,4.83-1.81,0,0-4.59c0-1.26-.35-1.74-1.18-1.75a2.45,2.45,0,0,0-1.76,1l0,5.37h-1.8Z"/><path class="cls-11" d="M33.13,46.93c0-2.51,1.6-4,3.29-4a2.86,2.86,0,0,1,2,.86l-.06-1.24,0-2.79h1.8l-.07,11.07H38.64L38.51,50h0a3.26,3.26,0,0,1-2.2,1C34.35,51,33.12,49.46,33.13,46.93Zm5.2,1.71,0-3.59a2.31,2.31,0,0,0-1.56-.65c-1,0-1.79.92-1.8,2.52s.62,2.56,1.73,2.57A2.07,2.07,0,0,0,38.33,48.64Z"/><path class="cls-11" d="M44,50h0l-.16.81H42.41l.07-11.06h1.81l0,2.86-.06,1.28A3.47,3.47,0,0,1,46.44,43c1.92,0,3,1.56,3,3.92,0,2.64-1.6,4.16-3.31,4.14A3,3,0,0,1,44,50Zm3.55-3.11c0-1.53-.48-2.45-1.66-2.45a2.39,2.39,0,0,0-1.68.85l0,3.58a2.31,2.31,0,0,0,1.53.65C46.79,49.56,47.58,48.66,47.59,46.92Z"/><path class="cls-11" d="M50.62,53.89l.34-1.4a1.85,1.85,0,0,0,.55.11,1.61,1.61,0,0,0,1.54-1.31l.15-.48-3-7.62,1.83,0L53.36,47c.22.69.44,1.45.66,2.18h.06c.2-.71.4-1.47.6-2.17l1.18-3.76H57.6l-2.84,8c-.65,1.72-1.47,2.79-3.14,2.78A3.08,3.08,0,0,1,50.62,53.89Z"/><path class="cls-11" d="M59.17,48.35l0-3.66H58.1V43.33l1.19-.08.22-2.09H61v2.1h2v1.43H61l0,3.66c0,.91.34,1.35,1.08,1.36a2.65,2.65,0,0,0,.81-.17l.29,1.33a5.22,5.22,0,0,1-1.57.27C59.81,51.14,59.16,50,59.17,48.35Z"/><path class="cls-11" d="M63.8,47.14a3.75,3.75,0,0,1,3.57-4c2.08,0,3.17,1.53,3.16,3.67a5.57,5.57,0,0,1-.09.88l-4.88,0a2.19,2.19,0,0,0,2.25,2.16,3.31,3.31,0,0,0,1.79-.55l.61,1.13a4.77,4.77,0,0,1-2.65.81A3.71,3.71,0,0,1,63.8,47.14ZM69,46.43c0-1.18-.51-1.9-1.57-1.91a1.93,1.93,0,0,0-1.85,1.89Z"/><path class="cls-11" d="M71.46,50.15,72.31,49a3.47,3.47,0,0,0,2.12.87c.84,0,1.23-.39,1.24-.91S74.84,48,74,47.71c-1-.39-2.15-1-2.14-2.26s1.09-2.29,2.81-2.28a4.16,4.16,0,0,1,2.55.94l-.83,1.1a2.85,2.85,0,0,0-1.68-.68c-.78,0-1.14.36-1.15.85s.77.84,1.6,1.15c1,.4,2.2.91,2.19,2.34s-1.06,2.38-3,2.37A4.88,4.88,0,0,1,71.46,50.15Z"/></svg>